<?xml version="1.0" encoding="UTF-8"?> <svg xmlns="http://www.w3.org/2000/svg" viewBox="0 0 836.94 152.72" fill="#d23b38"><path d="M478.54 142.46a10.26 10.26 0 0110.26-10.26 10.26 10.26 0 0110.26 10.26 10.26 10.26 0 01-10.26 10.26 10.26 10.26 0 01-10.26-10.26zM554.4 152.72c-28.1 0-49.29-21.11-49.29-49.1s21.19-49.1 49.29-49.1c20.12 0 37.39 11.41 44 29.07a2.56 2.56 0 010 2.34 2.8 2.8 0 01-2.39.94h-9.4a4.26 4.26 0 01-4-2.45c-5.41-9.82-16-15.68-28.26-15.68a34.88 34.88 0 000 69.75c12.16 0 23-6 28.26-15.65a4.19 4.19 0 014-2.48h9.4a2.8 2.8 0 012.39.94 2.53 2.53 0 010 2.31c-6.4 17.39-24.05 29.11-44 29.11zM655.74 152.72c-27.64 0-49.29-21.57-49.29-49.1s21.65-49.1 49.29-49.1S705 76.09 705 103.62s-21.62 49.1-49.26 49.1zm0-84.07c-19.45 0-34.68 15.36-34.68 35s15.23 35 34.68 35 34.68-15.36 34.68-35-15.23-35-34.68-35zM825.4 152.72c-2.08 0-3.05-1-3.05-3.06V90c0-12.13-6.6-19.37-17.65-19.37-15.67 0-21.23 13.44-21.23 25v54.06c0 2.08-1 3.06-3.05 3.06h-8.49c-2.08 0-3.05-1-3.05-3.06V90c0-12.13-6.6-19.37-17.65-19.37-15.67 0-21.23 13.44-21.23 25v54.06c0 2.08-1 3.06-3.05 3.06h-8.49c-2.08 0-3.05-1-3.05-3.06V62.35c0-2.08 1-3.06 3.05-3.06h8.49c2.08 0 3.05 1 3.05 3.06V72l1.82-2.66c5.66-8.25 13.68-12.43 23.84-12.43a26 26 0 0123.85 14.41l.8 1.54.93-1.47c6.18-9.75 14.92-14.48 26.71-14.48 17.62 0 29 12.75 29 32.49v60.26c0 2.08-1 3.06-3.05 3.06zM52.45 152.72C23 152.72 0 130.42 0 102s23-50.8 52.45-50.8S104.9 73.5 104.9 102s-23.04 50.72-52.45 50.72zm0-76c-14.7 0-25.37 10.62-25.37 25.24s10.67 25.24 25.37 25.24 25.37-10.61 25.37-25.2-10.67-25.28-25.37-25.28zM362.68 152.72c-31.73 0-53.88-20.87-53.88-50.76 0-29.41 22.32-50.76 53.07-50.76 28.85 0 49.79 21.35 49.79 50.76 0 2.51-.2 4.79-.4 7.21-.27 2.05-1.38 3-3.72 3h-68.46a1.76 1.76 0 00-1.67 2.28c3.61 11.46 12.73 17.76 25.69 17.76a27 27 0 0016.32-5.38c1.93-1.5 3.15-2.18 5.18-2.18l19.68-.2a3.11 3.11 0 012.64 1 2.13 2.13 0 01-.19 2c-7.54 16.31-23.17 25.27-44.05 25.27zm-1-78.59c-12.32 0-21 5.88-24.38 16.56a1.76 1.76 0 001.65 2.31h44a1.76 1.76 0 001.69-2.23c-2.95-10.58-11.33-16.64-22.98-16.64zM173.53 51.2c-12.46 0-22.27 3.86-29.14 11.48l-3.17 3.51V6a2.74 2.74 0 000-.41 6 6 0 00-6-5.59h-16.1a6 6 0 00-6 6v140.72a6 6 0 006 6h16.1a6 6 0 006-6v-9l3.17 3.51c6.87 7.61 16.68 11.47 29.14 11.47 26.43 0 47.13-22.3 47.13-50.76S200 51.2 173.53 51.2zm-6.14 76.8c-15.34 0-25.75-10-26.17-25.07V101c.42-15 10.83-25.07 26.17-25.07 15.66 0 26.19 10.47 26.19 26S183 128 167.39 128z"></path><rect x="271.99" y="13" width="28.1" height="139.72" rx="6" ry="6"></rect><path d="M469.39 52.06h-8.79V19a6 6 0 00-6-6h-16.1a6 6 0 00-6 6v33.06h-8.79a6 6 0 00-6 6v14.57a6 6 0 006 6h8.79v68.09a6 6 0 006 6h16.1a6 6 0 006-6V78.63h8.79a6 6 0 006-6V58.06a6 6 0 00-6-6z"></path><rect x="230.57" y="56.29" width="28.1" height="96.43" rx="6" ry="6"></rect><circle cx="244.53" cy="27.58" r="13.57"></circle></svg> 